<svg id="Layer_1" data-name="Layer 1" xmlns="http://www.w3.org/2000/svg" viewBox="0 0 559.55 554.13"><defs><style>.cls-1{fill:#fefefe;}.cls-2{fill:#fe1c1c;}.cls-3{fill:#dc1818;}.cls-4{fill:#dcdcdc;}.cls-5{fill:#fdfdfd;}</style></defs><title>Loader</title><path class="cls-1" d="M345.72,545.71a272.5,272.5,0,0,1-79.09,8.13c-61.88-3-117.3-23.55-165.28-62.9C49.77,448.63,17.58,394.39,4,329.12c-1.81-8.75-2.56-17.73-3.95-26.58-.34-2.24.23-3.13,2.49-2.89a23.14,23.14,0,0,0,2.5,0c54.48,0,109,.07,163.45-.13,4.06,0,5.28,1.44,6.2,4.88,11.5,43.19,46.48,74.61,91,80.33,54.52,7,104.55-26.77,118.87-79.67,1.19-4.39,2.75-5.56,7.19-5.52,30.32.22,60.64.11,91,.12,1.66,0,3.32.15,5,.22a34.78,34.78,0,0,0-.89,4.88c-.39,11.45-2.15,22.74-4.11,34a324.28,324.28,0,0,1-27.58,85.48,281.85,281.85,0,0,1-41.6,63.62c-17.26,19.74-36.23,37.5-58.73,51.26C351.62,541.05,347.91,542.38,345.72,545.71Z"/><path class="cls-2" d="M487.71,254.22c-32.81.06-65.62,0-98.43.29-3.89,0-3.77-2.49-4.37-4.67-9-32.72-28.76-56.59-59.31-71.16C265.2,149.88,191.86,184,175,248.76c-1.12,4.27-2.53,5.7-7.11,5.68q-79.44-.28-158.9,0c-4.8,0-5.52-1.57-5-5.67,6.52-54.64,26.5-103.7,61.56-146.19Q127.94,26.88,224.11,6A272.7,272.7,0,0,1,292,.2a254.43,254.43,0,0,1,52.73,7.14c.1,2.07,1.81,2.58,3.24,3.4a245.38,245.38,0,0,1,51.78,40.09,287.68,287.68,0,0,1,28.73,34.25c22.66,31.37,38.13,66,48.29,103.18C482.68,209.88,485.55,232,487.71,254.22Z"/><path class="cls-3" d="M487.71,254.22c-2.16-22.24-5-44.34-10.94-66-10.16-37.18-25.63-71.81-48.29-103.18a287.68,287.68,0,0,0-28.73-34.25A245.38,245.38,0,0,0,348,10.74c-1.43-.82-3.14-1.33-3.24-3.4A258,258,0,0,1,434,45.27q92.57,61.47,119.3,169.55c3,12.09,4.72,24.43,6.18,36.8.23,2,0,3.17-2.46,3.16q-34.44-.21-68.89-.32C488,254.46,487.85,254.3,487.71,254.22Z"/><path class="cls-4" d="M345.72,545.71c2.19-3.33,5.9-4.66,9.06-6.59,22.5-13.76,41.47-31.52,58.73-51.26a281.85,281.85,0,0,0,41.6-63.62,324.28,324.28,0,0,0,27.58-85.48c2-11.25,3.72-22.54,4.11-34a34.78,34.78,0,0,1,.89-4.88c5.94-1.05,11.92-.39,17.88-.44,15-.11,30,.23,45-.18,5.26-.15,5.62,2,5.12,6.06-3.75,30.79-11.33,60.55-25.06,88.43C492,472.26,430.52,523.26,345.72,545.71Z"/><path class="cls-5" d="M282.54,340.44c-33.6,1.68-61.51-23.55-65.9-55.14-5-35.75,21.93-70.28,60.62-71.9,32.17-1.35,64.81,22.38,66.18,62.51C344.62,310.46,316.7,339.48,282.54,340.44Z"/></svg>