<svg id="Layer_1" data-name="Layer 1" xmlns="http://www.w3.org/2000/svg" viewBox="0 0 227.9 228.07"><defs><style>.cls-1{fill:#f1f2f2;}</style></defs><title>pokeball</title><path class="cls-1" d="M29.35,123.72c9.32,0,18.65,0,28,0,1,0,1.31.21,1.52,1.28a56.16,56.16,0,0,0,44.27,44c29.58,5.94,59.05-13.1,65.65-42.41.64-2.82.64-2.82,3.46-2.82H226c2,0,2,0,1.81,2a114.35,114.35,0,0,1-57.19,87.38,114.73,114.73,0,0,1-67.38,14.51,112.24,112.24,0,0,1-60-24A113.1,113.1,0,0,1,3.58,144.16,122.14,122.14,0,0,1,.05,125.57c-.16-1.32,0-1.91,1.64-1.89C10.91,123.78,20.13,123.72,29.35,123.72Z" transform="translate(0 0)"/><path class="cls-1" d="M198.54,104.35q-13.9,0-27.82,0c-.95,0-1.43,0-1.67-1.27a56.15,56.15,0,0,0-44.28-44c-29.27-5.7-58,12.41-65.32,41.11-.11.45-.2.9-.31,1.34-.67,2.79-.67,2.79-3.46,2.79-18,0-36,0-53.95,0C.16,104.4-.11,104,0,102.54a114.55,114.55,0,0,1,63.61-90.9A111.69,111.69,0,0,1,99,1a114,114,0,0,1,90,27.06c19.63,17.11,32,38.5,37.27,64,.75,3.65,1.23,7.35,1.62,11.06.1,1-.18,1.27-1.2,1.27C217.3,104.33,207.92,104.35,198.54,104.35Z" transform="translate(0 0)"/><path class="cls-1" d="M112.46,77.48a36.62,36.62,0,1,1-35.18,39.17A36.54,36.54,0,0,1,112.46,77.48Z" transform="translate(0 0)"/></svg>