<?xml version="1.0" encoding="utf-8"?>
<!-- Generator: Adobe Illustrator 24.0.2, SVG Export Plug-In . SVG Version: 6.00 Build 0)  -->
<svg version="1.1" id="Layer_1" xmlns="http://www.w3.org/2000/svg" xmlns:xlink="http://www.w3.org/1999/xlink" x="0px" y="0px"
	 viewBox="0 0 559.55 554.13" style="enable-background:new 0 0 559.55 554.13;" xml:space="preserve">
<style type="text/css">
	.st0{fill:#EEEEEE;}
	.st1{fill:#CCCCCC;}
</style>
<g>
	<path class="st0" d="M559.49,251.62c-1.45-12.37-3.18-24.71-6.18-36.8c-17.83-71.93-57.59-128.57-119.29-169.55
		c-27.33-18.15-57.09-31.02-89.29-37.93C327.42,2.98,309.78,0.87,292,0.2c-22.84-0.86-45.5,1.01-67.89,5.83
		c-64.08,13.8-116.99,46.08-158.63,96.54c-35.06,42.5-55.04,91.55-61.56,146.19c-0.49,4.11,0.23,5.7,5.03,5.68
		c52.97-0.2,105.93-0.2,158.9,0c4.58,0.02,5.99-1.41,7.1-5.68c16.9-64.72,90.24-98.89,150.65-70.08
		c30.55,14.57,50.32,38.44,59.31,71.16c0.6,2.18,0.48,4.7,4.37,4.67c32.81-0.25,65.62-0.23,98.42-0.29
		c0.14,0.08,0.29,0.24,0.43,0.24c22.96,0.11,45.93,0.18,68.89,0.32C559.45,254.79,559.72,253.6,559.49,251.62z"/>
	<path class="st0" d="M550.54,299.27c-14.98,0.42-29.98,0.07-44.97,0.18c-5.96,0.05-11.94-0.61-17.88,0.44
		c-1.66-0.08-3.32-0.22-4.98-0.22c-30.33-0.01-60.65,0.1-90.97-0.13c-4.43-0.03-5.99,1.13-7.18,5.53
		c-14.32,52.89-64.35,86.68-118.87,79.67c-44.48-5.72-79.46-37.14-90.96-80.33c-0.92-3.45-2.13-4.89-6.19-4.88
		c-54.48,0.19-108.97,0.13-163.45,0.13c-0.83,0-1.67,0.07-2.5-0.01c-2.26-0.24-2.83,0.65-2.49,2.89c1.38,8.85,2.13,17.83,3.95,26.59
		c13.53,65.27,45.72,119.51,97.3,161.81c47.99,39.36,103.4,59.95,165.29,62.9c26.71,1.27,53.11-1.66,79.08-8.13
		c84.8-22.45,146.23-73.44,184.88-151.95c13.72-27.88,21.31-57.64,25.06-88.43C556.16,301.26,555.8,299.12,550.54,299.27z"/>
	<path class="st0" d="M282.54,340.44c-33.61,1.68-61.51-23.55-65.9-55.14c-4.97-35.76,21.93-70.29,60.62-71.91
		c32.17-1.35,64.81,22.39,66.18,62.51C344.62,310.46,316.7,339.48,282.54,340.44z"/>
</g>
<rect x="-224.61" y="26.35" class="st1" width="90.14" height="100.9"/>
<g>
</g>
<g>
</g>
<g>
</g>
<g>
</g>
<g>
</g>
</svg>
