<?xml version="1.0" encoding="utf-8"?>
<!-- Generator: Adobe Illustrator 24.0.2, SVG Export Plug-In . SVG Version: 6.00 Build 0)  -->
<svg version="1.1" id="Layer_1" xmlns="http://www.w3.org/2000/svg" xmlns:xlink="http://www.w3.org/1999/xlink" x="0px" y="0px"
	 viewBox="0 0 291.79 283.42" style="enable-background:new 0 0 291.79 283.42;" xml:space="preserve">
<style type="text/css">
	.st0{fill:#29395F;}
	.st1{fill:#EE2058;}
	.st2{fill:#D51D4F;}
	.st3{fill:#F6FAFD;}
	.st4{fill:#E74C8A;}
	.st5{fill:#F0BF4A;}
</style>
<g>
	<path class="st0" d="M174.54,8.1c11.63,5.79,22.03,12.73,31.17,21.5c1.55,1.49,3.21,1.43,5.02,1.43c7.98,0,15.97,0.05,23.95-0.03
		c2.99-0.03,5.65,0.63,5.63,4.05c-0.02,3.43-2.71,4.05-5.68,4.01c-6.27-0.08-12.54-0.03-19.72-0.03c3.31,3.94,4.45,8.89,10.67,7.94
		c2.69-0.41,6.51-1.21,6.91,3.38c0.38,4.4-3.42,4.08-6.24,4.84c2.36,5.52,4.67,10.97,7,16.41c2.23,5.2,1.04,9.7-2.71,13.72
		c-5.27,5.66-11.66,9.85-18.33,13.61c-31.95,18.03-66.29,30.08-101.48,39.82c-20.8,5.76-41.82,10.64-63.57,11.05
		c-1.49,0.03-3-0.02-4.48-0.15c-10.64-0.94-13.26-3.22-16.15-13.51c-2.22-7.87-3.46-15.9-3.68-24.03c-0.09-3.13-0.73-4.39-4.08-4.3
		c-3.99,0.11-7.92-0.82-11.61-2.39c-7.39-3.14-9.24-9.4-4.7-16.2c3.19-4.78,7.44-8.77,12.43-11.31
		c10.89-5.54,17.34-14.25,23.48-24.75C56.29,22.51,83.83,5.02,119.23,1.04c22.5-2.53,45.18-0.49,67.78-0.94
		c2.52-0.05,4.29,1.29,4.4,3.77c0.12,2.78-1.71,4.19-4.45,4.21C182.82,8.13,178.68,8.1,174.54,8.1z M182.71,70.24
		c12.17-1.6,24.26-4.07,36.63-3.3c2.56,0.16,2.8-0.72,1.78-2.87c-2.51-5.28-4.47-10.96-12.37-9.23c-2.5,0.55-4.67-1.04-4.96-3.78
		c-0.3-2.84,1.51-4.16,4.25-4.39c0.38-0.03,0.73-0.49,1.33-0.91c-6.81-8.96-15.07-16.02-24.34-21.97c-1.72-1.1-3.16-1.14-3.75,1.2
		c-2.35,9.21-6.78,17.57-10.69,26.15c-6.2,8.38-11.94,17.13-19.9,24.05c-0.59,0.51-1.47,1.17-0.94,2.07
		c0.6,1.03,1.65,0.66,2.63,0.42C162.49,75.19,172.6,72.72,182.71,70.24z M101.66,13.31c-3.25,0.06-6.01,1.71-8.97,2.71
		c-2.95,1-3.69,2.08-0.89,4.51c15.52,13.48,28.32,29.3,39.65,46.38c6.13,9.24,6.24,9.34,14.3,1.49
		c7.61-7.41,14.73-15.24,18.72-25.35c4.79-6.33,6.58-13.91,9.07-21.22c1.06-3.13,0.16-4.39-2.67-5.56
		c-13.49-5.61-27.52-8.5-42.09-7.95C119.56,8.65,110.28,9.35,101.66,13.31z M43.72,61c6.83-1.49,12.58-5.63,19.14-7.79
		c2.65-0.87,5.49-1.54,6.75,1.83c1.18,3.18-0.89,4.79-3.66,5.97c-7.48,3.18-14.74,6.94-22.37,9.65c-6.08,2.17-8.3,6.45-9.49,12.11
		c-0.48,2.29,0.18,3.34,2.19,4.2c4.87,2.09,9.81,3.9,14.95,5.24c26.32,6.86,51.33,3.6,75.14-9.45c2.6-1.42,3.71-2.67,1.79-5.7
		c-12.24-19.34-26.47-36.96-43.7-52.14c-3.02-2.66-5.04-2.41-8.12-0.38c-12.7,8.38-23,19.01-30.95,31.93
		c-0.83,1.35-2.15,2.61-1.69,4.49c-0.15,0.01-0.29,0.03-0.44,0.04c0.1,0.14,0.2,0.27,0.3,0.41C43.62,61.28,43.67,61.14,43.72,61z
		 M31.96,94.04c-2.2,12.13-1.53,23.62,1.39,35.69c12.93-11.03,27.58-17.96,42.02-25.38C60.27,103.68,46.05,100.02,31.96,94.04z
		 M26.54,79.88c-5.5,3.25-10.02,6.25-14.04,9.94c-1.93,1.77-4.73,3.82-4.21,6.3c0.57,2.75,4.17,2.66,6.68,3.24
		c1.59,0.37,3.29,0.24,4.89,0.57c2.72,0.56,3.49-0.8,3.65-3.18C23.87,91.35,24.71,86.02,26.54,79.88z"/>
	<path class="st0" d="M245.65,230.37c3.66,0.18,7-0.18,6.81,4.08c-0.17,4-3.4,4.43-6.18,3.91c-6.56-1.24-8.23,3.95-11.95,8.24
		c7.29,0,13.69,0.06,20.09-0.03c2.93-0.04,5.74,0.41,5.85,3.83c0.13,3.79-2.83,4.37-5.94,4.21c-1-0.05-2-0.01-2.99-0.01
		c-7.32,0-14.73-0.68-21.94,0.19c-7.38,0.89-11.47,7.87-17.35,11.7c-49.73,32.42-117.4,16.76-147.63-34.45
		c-1.51-2.56-3.32-4.28-6.11-5.39c-7.1-2.82-13.91-6.25-20.11-10.76c-2.29-1.67-4.45-3.47-6.09-5.83
		c-4.31-6.21-2.62-12.5,4.52-16.02c3.57-1.76,7.42-2.93,11.39-3.35c2.19-0.23,2.75-1.21,2.7-3.22c-0.11-4.32-0.03-8.64-0.03-12.97
		c0-1.26,0.35-2.44-1.63-2.97c-2.12-0.57-3.12-2.43-2.56-4.72c0.64-2.63,2.68-2.98,5.01-3.09c17.11-0.81,34.21-1.26,51.32-0.16
		c5.97,0.38,11.99,0.23,17.91,0.93c3.57,0.42,4.76-0.7,5.86-3.93c4.58-13.46,17.36-22.45,31.49-22.59
		c13.99-0.14,26.76,8.44,31.93,21.42c1.36,3.42,2.44,7.02,2.3,10.63c-0.14,3.48,1.67,4.06,4.32,4.58
		c18.41,3.6,36.5,8.43,54.37,14.11c2.68,0.85,5.27,2,7.97,2.82c2.08,0.63,3.1,2.15,3.06,4.01c-0.04,1.91-1.23,3.53-3.33,3.79
		c-1.45,0.18-2.44,0.42-2.75,2.1C254.08,211.44,250.43,220.82,245.65,230.37z M217.52,188.01c-7.87-2.71-16.06-4.03-24.16-5.8
		c-1.66-0.36-2.39,0.24-2.96,1.74c-2.65,6.86-6.99,12.41-13.12,16.51c-1.49,0.99-1.74,1.85-0.15,2.93
		c9.86,6.69,17.52,15.65,25.28,24.51c4.23,7.49,8.72,14.85,11.89,22.89c0.95,2.42,2.19,2.2,3.66,0.75
		c3.43-3.38,6.82-6.8,10.15-10.28c0.68-0.71,2.03-1.9-0.12-2.54c-2.87-0.86-5.04-2.3-4-5.64c1.08-3.47,4.28-2.77,6.78-2.52
		c3.9,0.38,6.1-1.22,7.84-4.59c4.22-8.16,7.29-16.7,9.41-25.62c0.61-2.58,0.01-4.04-2.68-4.82
		C236.12,192.82,227.01,189.71,217.52,188.01z M126.65,270.62c1.35,0.58,2.65,1.38,4.05,1.7c12.2,2.77,24.55,3.83,36.97,2.08
		c13.25-1.86,25.71-6.16,37.13-13.26c1.77-1.1,3.57-2.13,2.59-4.62c-2.9-7.35-5.58-14.83-11.01-20.85
		c-7.16-12.78-17.94-21.88-30.21-29.39c-3.15-1.93-3.91,1.11-4.88,3.1c-9.94,20.35-22.36,39.07-36.96,56.37
		c-0.93,1.1-2.69,2.1-2.11,3.63C122.96,271.31,125.11,270.35,126.65,270.62z M76.35,233.79c8.56,13.8,20.16,23.9,34.39,31.05
		c2.17,1.09,3.31,0.25,4.63-1.3c14.17-16.63,26.62-34.41,36.53-53.94c1.65-3.25,0.57-4.21-2.44-4.83
		c-4.48-0.92-8.95-2.66-11.84-6.01c-4.81-5.56-10.79-6.28-17.43-6.52c-19.29-0.71-37.23,3.77-53.91,13.39
		c-1.34,0.77-3.24,1.13-3.47,3.21c-0.38,3.52,5.52,13.29,8.92,14.51c4.84,1.75,9.73,3.38,14.6,5.03c2.68,0.91,3.83,2.82,2.87,5.39
		c-0.86,2.31-2.83,3.06-5.32,2.24C81.4,235.2,78.86,234.53,76.35,233.79z M158.28,197.86c14.28,0.08,26.04-11.46,26.2-25.71
		c0.16-14.01-11.77-26.1-25.86-26.22c-14.17-0.12-25.98,11.62-26.02,25.86C132.55,186.27,143.89,197.78,158.28,197.86z
		 M126.35,184.28c-0.94-4.21-0.61-9.14-2.8-10.84c-2.53-1.98-7.28-1.15-11.07-1.48c-1.65-0.14-3.32-0.13-4.98-0.2
		c-14.78-0.61-29.55-1.12-44.35-0.69c-2.91,0.08-4.57,0.48-4.56,4.05c0.02,6.98-0.08,13.93,1.08,20.85c0.48,2.88,1.59,3.23,4,1.82
		c4.73-2.77,9.68-5.14,14.82-7.08C93.78,184.95,109.59,182.82,126.35,184.28z M56.9,217.35c-1.35-4.73-2.52-8.15-3.3-11.66
		c-1.82-8.2-2.12-8.44-10.19-5.76c-1.09,0.36-2.11,0.93-3.17,1.39c-2.72,1.17-2.93,2.74-0.91,4.85
		C44.09,211.14,50.1,213.99,56.9,217.35z"/>
	<path class="st0" d="M204.83,161.74c-2.15,0.18-3.6-0.57-4.28-2.29c-0.92-2.34,0.14-4.12,1.86-5.73
		c8.1-7.63,16.11-15.37,24.26-22.95c4.82-4.49,4.92-4.4,0.46-9.37c-0.89-0.99-1.9-1.87-2.75-2.89c-2.88-3.46-2.23-6.29,2.02-7.5
		c19.92-5.68,39.88-11.21,59.81-16.82c1.99-0.56,3.85-0.29,4.88,1.39c1.39,2.25,0.54,4.32-1.16,6.31
		c-8.08,9.49-15.96,19.15-24.13,28.56c-2.07,2.39-2.13,3.94,0.18,5.93c1.37,1.18,2.44,2.71,3.73,4c1.68,1.67,3.46,3.27,2.58,5.99
		c-0.91,2.82-3.59,2.72-5.75,3.15c-15.95,3.2-31.91,6.29-47.87,9.42C213.97,159.87,209.27,160.84,204.83,161.74z M234.29,117.14
		c1.5,1.73,2.33,2.75,3.22,3.72c4.73,5.13,4.71,5.91-0.42,10.82c-5.51,5.28-11.07,10.51-16.53,15.84c-0.8,0.78-2.39,1.34-1.65,3.34
		c13.68-2.74,27.33-5.47,41.6-8.32c-1.37-1.61-2.09-2.5-2.85-3.35c-4.69-5.2-4.71-5.64-0.09-11.18c4.88-5.87,9.81-11.69,14.66-17.59
		c0.68-0.83,2.22-1.58,1.55-2.83c-0.74-1.4-2.36-0.92-3.59-0.58C258.42,110.29,246.65,113.64,234.29,117.14z"/>
	<path class="st0" d="M203.95,0.12c3.09-0.23,6.26,0.05,6.38,3.79c0.13,4.16-3.24,4.22-6.41,4.23c-2.99,0.01-6.2-0.08-6.31-3.84
		C197.5,0.17,200.82-0.1,203.95,0.12z"/>
	<path class="st0" d="M253.1,39.02c-3.11,0.17-6.53,0.11-6.55-4.02c-0.03-3.77,3.12-4.02,6.15-4c3.11,0.03,6.56-0.08,6.58,4.07
		C259.29,38.83,256.17,39.23,253.1,39.02z"/>
	<path class="st0" d="M272.71,246.62c3.2-0.17,6.59-0.03,6.53,4.11c-0.05,3.77-3.24,3.92-6.25,3.91c-3.15-0.01-6.55-0.01-6.48-4.16
		C266.57,246.73,269.73,246.41,272.71,246.62z"/>
	<path class="st1" d="M43.7,60.96c-0.46-1.88,0.86-3.14,1.69-4.49c7.96-12.92,18.25-23.56,30.95-31.93
		c3.08-2.03,5.09-2.28,8.12,0.38c17.23,15.18,31.46,32.8,43.7,52.14c1.92,3.04,0.81,4.28-1.79,5.7
		c-23.81,13.04-48.82,16.3-75.14,9.45c-5.14-1.34-10.08-3.15-14.95-5.24c-2.01-0.86-2.67-1.92-2.19-4.2
		c1.19-5.67,3.41-9.95,9.49-12.11c7.63-2.72,14.9-6.47,22.37-9.65c2.77-1.18,4.84-2.79,3.66-5.97c-1.25-3.37-4.1-2.7-6.75-1.83
		c-6.56,2.16-12.31,6.31-19.14,7.79L43.7,60.96z M83.06,45.95c-3.94-0.11-9.46,3.13-9.51,5.72c-0.05,2.49,1.27,4.09,3.82,4.32
		c3.91,0.36,9.79-3.28,9.72-6.01C87.02,47.47,85.67,46.02,83.06,45.95z"/>
	<path class="st1" d="M164.47,43.04c-3.99,10.11-11.11,17.94-18.72,25.35c-8.07,7.86-8.17,7.76-14.3-1.49
		c-11.32-17.08-24.13-32.9-39.65-46.38c-2.8-2.43-2.07-3.51,0.89-4.51c2.96-1,5.73-2.65,8.97-2.71c0.75,0.26,1.49,0.64,2.27,0.76
		c17.91,2.8,34.14,9.48,48.75,20.3C156.6,37.27,159.33,41.82,164.47,43.04z"/>
	<path class="st2" d="M170.6,51.14c3.91-8.57,8.34-16.93,10.69-26.15c0.6-2.35,2.04-2.31,3.75-1.2
		c9.27,5.96,17.53,13.02,24.34,21.97c-0.59,0.42-0.94,0.88-1.33,0.91c-2.74,0.22-4.55,1.54-4.25,4.39c0.29,2.73,2.45,4.33,4.96,3.78
		c7.9-1.73,9.86,3.95,12.37,9.23c1.02,2.15,0.78,3.03-1.78,2.87c-12.38-0.78-24.47,1.7-36.64,3.3
		C179.26,63.5,174.92,57.33,170.6,51.14z"/>
	<path class="st2" d="M164.47,43.04c-5.14-1.22-7.88-5.77-11.79-8.67c-14.62-10.82-30.85-17.5-48.75-20.3
		c-0.78-0.12-1.51-0.5-2.27-0.76c8.61-3.96,17.9-4.66,27.12-5.01c14.57-0.54,28.6,2.35,42.09,7.95c2.82,1.17,3.73,2.43,2.67,5.56
		C171.05,29.14,169.26,36.72,164.47,43.04z"/>
	<path class="st1" d="M31.96,94.04c14.09,5.98,28.31,9.65,43.42,10.31c-14.45,7.42-29.09,14.35-42.02,25.38
		C30.43,117.66,29.76,106.17,31.96,94.04z"/>
	<path class="st1" d="M170.6,51.14c4.32,6.19,8.66,12.36,12.12,19.09c-10.11,2.48-20.23,4.95-30.34,7.45
		c-0.98,0.24-2.02,0.62-2.63-0.42c-0.52-0.9,0.35-1.56,0.94-2.07C158.66,68.28,164.4,59.52,170.6,51.14z"/>
	<path class="st3" d="M26.54,79.88c-1.83,6.14-2.68,11.47-3.04,16.87c-0.16,2.37-0.93,3.74-3.65,3.18c-1.6-0.33-3.3-0.2-4.89-0.57
		c-2.5-0.58-6.11-0.49-6.68-3.24c-0.51-2.48,2.28-4.53,4.21-6.3C16.52,86.13,21.04,83.13,26.54,79.88z"/>
	<path class="st4" d="M43.72,61c-0.05,0.14-0.11,0.28-0.16,0.42c-0.1-0.14-0.2-0.27-0.3-0.41c0.15-0.01,0.29-0.03,0.44-0.04
		C43.7,60.96,43.72,61,43.72,61z"/>
	<path class="st1" d="M76.35,233.79c2.51,0.74,5.05,1.41,7.54,2.23c2.49,0.82,4.45,0.07,5.32-2.24c0.96-2.57-0.19-4.48-2.87-5.39
		c-4.88-1.65-9.76-3.29-14.6-5.03c-3.39-1.22-9.29-10.99-8.92-14.51c0.22-2.08,2.12-2.44,3.47-3.21
		c16.68-9.62,34.62-14.1,53.91-13.39c6.63,0.24,12.62,0.96,17.43,6.52c2.9,3.35,7.36,5.09,11.84,6.01c3.01,0.62,4.09,1.58,2.44,4.83
		c-9.9,19.53-22.36,37.31-36.53,53.94c-1.32,1.55-2.46,2.39-4.63,1.3C96.51,257.69,84.91,247.59,76.35,233.79z M98.71,232.24
		c-2.15,0.11-4.09,1.02-4.07,4.06c0.02,3.05,5.4,6.07,10.82,6c2.5-0.03,4.11-1.31,4.31-3.89
		C110.01,235.12,105.22,232.37,98.71,232.24z"/>
	<path class="st1" d="M126.65,270.62c-1.55-0.26-3.7,0.69-4.43-1.24c-0.58-1.53,1.18-2.53,2.11-3.63
		c14.6-17.3,27.02-36.02,36.96-56.37c0.97-1.99,1.73-5.03,4.88-3.1c12.26,7.51,23.05,16.61,30.21,29.39
		c-0.58,0.27-1.32,0.4-1.71,0.84c-14.26,16.21-32.03,26.48-53.04,31.19C136.68,268.81,131.65,269.65,126.65,270.62z"/>
	<path class="st3" d="M158.28,197.86c-14.39-0.08-25.73-11.59-25.69-26.07c0.04-14.24,11.85-25.98,26.02-25.86
		c14.09,0.12,26.02,12.21,25.86,26.22C184.32,186.41,172.56,197.94,158.28,197.86z M168.55,171.68c-0.06-5.76-4.32-9.94-10.1-9.9
		c-5.75,0.04-9.95,4.32-9.9,10.09c0.05,5.74,4.32,9.93,10.11,9.9C164.41,181.74,168.62,177.46,168.55,171.68z"/>
	<path class="st2" d="M217.52,188.01c9.49,1.71,18.6,4.82,27.82,7.5c2.69,0.78,3.29,2.24,2.68,4.82
		c-2.12,8.92-5.19,17.46-9.41,25.62c-1.74,3.37-3.94,4.97-7.84,4.59c-2.5-0.25-5.7-0.95-6.78,2.52c-1.04,3.34,1.12,4.79,4,5.64
		c2.15,0.64,0.8,1.83,0.12,2.54c-3.33,3.48-6.72,6.91-10.15,10.28c-1.47,1.45-2.7,1.67-3.66-0.75c-3.16-8.04-7.66-15.4-11.88-22.89
		c0.09-1.92,1.22-3.36,2.18-4.91C211.28,212.21,215.47,200.5,217.52,188.01z"/>
	<path class="st2" d="M126.65,270.62c5-0.97,10.02-1.8,14.99-2.92c21.01-4.72,38.77-14.98,53.04-31.19
		c0.39-0.44,1.13-0.57,1.71-0.84c5.43,6.02,8.11,13.5,11.01,20.85c0.98,2.49-0.81,3.52-2.59,4.62c-11.42,7.1-23.88,11.4-37.13,13.26
		c-12.42,1.75-24.77,0.69-36.97-2.08C129.3,271.99,128,271.19,126.65,270.62z"/>
	<path class="st1" d="M126.35,184.28c-16.76-1.46-32.57,0.67-47.87,6.43c-5.14,1.93-10.08,4.31-14.82,7.08
		c-2.41,1.41-3.51,1.06-4-1.82c-1.16-6.92-1.06-13.87-1.08-20.85c-0.01-3.57,1.66-3.96,4.56-4.05c14.8-0.42,29.57,0.08,44.35,0.69
		c1.66,0.07,3.33,0.05,4.98,0.2c3.79,0.33,8.54-0.5,11.07,1.48C125.74,175.15,125.41,180.08,126.35,184.28z"/>
	<path class="st1" d="M217.52,188.01c-2.05,12.49-6.24,24.2-12.93,34.98c-0.96,1.55-2.09,2.98-2.18,4.91
		c-7.76-8.86-15.41-17.82-25.28-24.51c-1.6-1.08-1.34-1.94,0.15-2.93c6.13-4.09,10.47-9.65,13.12-16.51c0.58-1.49,1.3-2.1,2.96-1.74
		C201.46,183.97,209.65,185.29,217.52,188.01z"/>
	<path class="st3" d="M56.9,217.35c-6.8-3.36-12.81-6.22-17.56-11.17c-2.02-2.11-1.81-3.68,0.91-4.85c1.06-0.46,2.08-1.03,3.17-1.39
		c8.07-2.68,8.36-2.45,10.19,5.76C54.38,209.21,55.55,212.63,56.9,217.35z"/>
	<path class="st5" d="M234.29,117.14c12.36-3.5,24.13-6.85,35.92-10.14c1.22-0.34,2.84-0.81,3.59,0.58c0.67,1.25-0.87,2-1.55,2.83
		c-4.85,5.9-9.78,11.72-14.66,17.59c-4.62,5.55-4.6,5.99,0.09,11.18c0.76,0.85,1.48,1.74,2.85,3.35
		c-14.27,2.86-27.93,5.59-41.6,8.32c-0.74-2,0.85-2.56,1.65-3.34c5.46-5.33,11.02-10.56,16.53-15.84c5.13-4.91,5.14-5.69,0.42-10.82
		C236.62,119.89,235.79,118.87,234.29,117.14z"/>
	<path class="st0" d="M83.06,45.95c2.61,0.07,3.96,1.52,4.02,4.03c0.07,2.74-5.81,6.37-9.72,6.01c-2.55-0.23-3.87-1.83-3.82-4.32
		C73.6,49.08,79.12,45.84,83.06,45.95z"/>
	<path class="st0" d="M98.71,232.24c6.51,0.13,11.31,2.88,11.06,6.18c-0.19,2.57-1.81,3.85-4.31,3.89c-5.42,0.07-10.8-2.95-10.82-6
		C94.61,233.25,96.56,232.35,98.71,232.24z"/>
	<path class="st0" d="M168.55,171.68c0.06,5.77-4.14,10.06-9.89,10.09c-5.79,0.03-10.06-4.16-10.11-9.9
		c-0.05-5.77,4.15-10.05,9.9-10.09C164.23,161.74,168.49,165.92,168.55,171.68z"/>
</g>
<g>
</g>
<g>
</g>
<g>
</g>
<g>
</g>
<g>
</g>
<g>
</g>
</svg>
